<svg clip-rule="evenodd" fill-rule="evenodd" stroke-miterlimit="1.41421" viewBox="0 0 734 141" xmlns="http://www.w3.org/2000/svg"><g transform="scale(4.16667)"><path d="m158.064 7.302v6.36h5.599c2.987 0 3.342-1.494 3.342-3.372 0-1.877-.355-2.988-3.342-2.988zm-7.096-5.22h12.695c5.982 0 10.084 2.61 10.084 8.208 0 7.093-6.742 8.97-6.742 8.97l7.854 12.695h-7.093l-7.092-12.695h-2.61v12.695h-7.096zm-22.427 0h19.438v5.22h-12.696v6.36h12.696v5.598h-12.696v7.476h12.696v5.219h-19.438zm-26.88 0h6.715l9.351 17.912v-17.912h7.093v29.873h-7.093l-9.351-16.799v16.799h-6.715zm-26.148 0h6.711v11.58h8.591v-11.58h6.743v29.873h-6.743v-12.695h-8.591v12.695h-6.711zm-10.468 19.787h6.743v3.372c0 3.722-2.609 7.826-10.464 7.826-8.208 0-11.579-4.104-11.579-7.826v-16.444c0-3.727 3.371-7.831 11.196-7.831 8.238 0 10.847 4.104 10.847 7.831v2.609h-6.743v-1.498c0-4.105-8.94-4.105-8.94 0v14.217c0 4.105 8.94 4.105 8.94 0zm-35.471-19.787v22.043c0 4.105 9.352 4.105 9.352 0v-22.043h6.715v23.159c0 3.722-3.725 7.826-11.202 7.826-7.092 0-11.58-4.104-11.58-7.826v-23.159zm-29.491 0h19.405v5.22h-12.691v6.36h12.691v5.598h-12.691v7.476h12.691v5.219h-19.405z" fill="#da1f3d" fill-rule="nonzero"/><path d="m158.064 7.302v6.36h5.599c2.987 0 3.342-1.494 3.342-3.372 0-1.877-.355-2.988-3.342-2.988zm-7.096-5.22h12.695c5.982 0 10.084 2.61 10.084 8.208 0 7.093-6.742 8.97-6.742 8.97l7.854 12.695h-7.093l-7.092-12.695h-2.61v12.695h-7.096zm-22.427 0h19.438v5.22h-12.696v6.36h12.696v5.598h-12.696v7.476h12.696v5.219h-19.438zm-26.88 0h6.715l9.351 17.912v-17.912h7.093v29.873h-7.093l-9.351-16.799v16.799h-6.715zm-26.148 0h6.711v11.58h8.591v-11.58h6.743v29.873h-6.743v-12.695h-8.591v12.695h-6.711zm-10.468 19.787h6.743v3.372c0 3.722-2.609 7.826-10.464 7.826-8.208 0-11.579-4.104-11.579-7.826v-16.444c0-3.727 3.371-7.831 11.196-7.831 8.238 0 10.847 4.104 10.847 7.831v2.609h-6.743v-1.498c0-4.105-8.94-4.105-8.94 0v14.217c0 4.105 8.94 4.105 8.94 0zm-35.471-19.787v22.043c0 4.105 9.352 4.105 9.352 0v-22.043h6.715v23.159c0 3.722-3.725 7.826-11.202 7.826-7.092 0-11.58-4.104-11.58-7.826v-23.159zm-29.491 0h19.405v5.22h-12.691v6.36h12.691v5.598h-12.691v7.476h12.691v5.219h-19.405z" fill="none" stroke="#da1f3d" stroke-width=".17"/></g></svg>